# xmcd
#
# Track frame offsets:
#	150
#	8603
#	18541
#	28639
#	40849
#	51292
#	61550
#	71465
#	82015
#	92238
#	100311
#
# Disc length: 1428 seconds
#
# Revision: 1
# Processed by: cddbd v1.5.2PL0 Copyright (c) Steve Scherf et al.
# Submitted via: audiograbber 1.83.01
#
DISCID=8205920b
DTITLE=Marteka and William - The Sounds Of A Tradition
DYEAR=2014
DGENRE=Bluegrass
TTITLE0=Yonder Stands Little Maggie
TTITLE1=Cripple Creek
TTITLE2=I Know What It Means To Be Lonesome
TTITLE3=Reuben
TTITLE4=Sally Ann
TTITLE5=Head Over Heels
TTITLE6=John Henry
TTITLE7=When The Angels Carry Me Home
TTITLE8=Rambling Gambler
TTITLE9=Sally Goodwin
TTITLE10=Johnson Ridge Special
EXTD=
EXTT0=
EXTT1=
EXTT2=
EXTT3=
EXTT4=
EXTT5=
EXTT6=
EXTT7=
EXTT8=
EXTT9=
EXTT10=
PLAYORDER=
